<svg width="37" height="24" viewBox="0 0 37 24" fill="none" xmlns="http://www.w3.org/2000/svg">
<path d="M26.5392 3.57643e-06C28.9843 3.79019e-06 31.1222 1.64834 31.744 4.01307L35.7871 19.3877C36.4002 21.7192 34.6416 24 32.2309 24V24C30.4946 24 28.9949 22.7854 28.6341 21.087L26.0083 8.72608C25.9957 8.66714 25.9437 8.625 25.8835 8.625V8.625C25.8239 8.625 25.7723 8.66619 25.7591 8.72425L23.1215 20.3015C22.6286 22.4651 20.7046 24 18.4856 24V24C16.2798 24 14.3636 22.4829 13.8576 20.3359L11.1469 8.83284C11.1333 8.77514 11.0818 8.73438 11.0225 8.73438V8.73438C10.962 8.73438 10.9097 8.77687 10.8974 8.83616L8.35434 21.0771C8.00066 22.7796 6.50063 24 4.76185 24V24C2.35539 24 0.600431 21.7224 1.21388 19.3955L5.27164 4.00349C5.89365 1.64409 8.02734 1.95807e-06 10.4674 2.17138e-06V2.17138e-06C12.894 2.38353e-06 15.0195 1.6265 15.6538 3.96882L18.3308 13.8549C18.3515 13.9313 18.4208 13.9844 18.5 13.9844V13.9844C18.5791 13.9844 18.6485 13.9313 18.6692 13.8549L21.3445 3.97514C21.9798 1.62909 24.1087 3.36394e-06 26.5392 3.57643e-06V3.57643e-06Z" fill="#0046DC"/>
</svg>
