<svg width="164" height="42" viewBox="0 0 164 42" fill="none" xmlns="http://www.w3.org/2000/svg">
<path d="M48.696 32.384C47.16 32.384 45.7733 32.032 44.536 31.328C43.32 30.624 42.3493 29.6533 41.624 28.416C40.92 27.1573 40.568 25.7067 40.568 24.064C40.568 22.4213 40.9307 20.9813 41.656 19.744C42.3813 18.4853 43.352 17.504 44.568 16.8C45.8053 16.096 47.192 15.744 48.728 15.744C50.2427 15.744 51.608 16.096 52.824 16.8C54.0613 17.504 55.032 18.4853 55.736 19.744C56.4613 20.9813 56.824 22.4213 56.824 24.064C56.824 25.7067 56.4613 27.1573 55.736 28.416C55.032 29.6533 54.0613 30.624 52.824 31.328C51.5867 32.032 50.2107 32.384 48.696 32.384ZM48.696 28.832C49.7627 28.832 50.6907 28.4373 51.48 27.648C52.2693 26.8373 52.664 25.6427 52.664 24.064C52.664 22.4853 52.2693 21.3013 51.48 20.512C50.6907 19.7013 49.7733 19.296 48.728 19.296C47.64 19.296 46.7013 19.7013 45.912 20.512C45.144 21.3013 44.76 22.4853 44.76 24.064C44.76 25.6427 45.144 26.8373 45.912 27.648C46.7013 28.4373 47.6293 28.832 48.696 28.832ZM68.1023 32.384C66.5663 32.384 65.1796 32.032 63.9423 31.328C62.7263 30.624 61.7556 29.6533 61.0303 28.416C60.3263 27.1573 59.9743 25.7067 59.9743 24.064C59.9743 22.4213 60.3369 20.9813 61.0623 19.744C61.7876 18.4853 62.7583 17.504 63.9743 16.8C65.2116 16.096 66.5983 15.744 68.1343 15.744C69.6489 15.744 71.0143 16.096 72.2303 16.8C73.4676 17.504 74.4383 18.4853 75.1423 19.744C75.8676 20.9813 76.2303 22.4213 76.2303 24.064C76.2303 25.7067 75.8676 27.1573 75.1423 28.416C74.4383 29.6533 73.4676 30.624 72.2303 31.328C70.9929 32.032 69.6169 32.384 68.1023 32.384ZM68.1023 28.832C69.1689 28.832 70.0969 28.4373 70.8863 27.648C71.6756 26.8373 72.0703 25.6427 72.0703 24.064C72.0703 22.4853 71.6756 21.3013 70.8863 20.512C70.0969 19.7013 69.1796 19.296 68.1343 19.296C67.0463 19.296 66.1076 19.7013 65.3183 20.512C64.5503 21.3013 64.1663 22.4853 64.1663 24.064C64.1663 25.6427 64.5503 26.8373 65.3183 27.648C66.1076 28.4373 67.0356 28.832 68.1023 28.832ZM79.8925 32V16.128H83.5085L83.8285 18.816C84.3192 17.8773 85.0232 17.1307 85.9405 16.576C86.8792 16.0213 87.9778 15.744 89.2365 15.744C91.1992 15.744 92.7245 16.3627 93.8125 17.6C94.9005 18.8373 95.4445 20.6507 95.4445 23.04V32H91.3485V23.424C91.3485 22.0587 91.0712 21.0133 90.5165 20.288C89.9618 19.5627 89.0978 19.2 87.9245 19.2C86.7725 19.2 85.8232 19.6053 85.0765 20.416C84.3512 21.2267 83.9885 22.3573 83.9885 23.808V32H79.8925ZM100.097 32V19.552H97.9213V16.128H100.097V14.272C100.097 12.352 100.577 10.9867 101.537 10.176C102.519 9.36533 103.841 8.96 105.505 8.96H107.265V12.448H106.145C105.441 12.448 104.94 12.5867 104.641 12.864C104.343 13.1413 104.193 13.6107 104.193 14.272V16.128H107.617V19.552H104.193V32H100.097ZM117.852 32.384C116.316 32.384 114.93 32.032 113.692 31.328C112.476 30.624 111.506 29.6533 110.78 28.416C110.076 27.1573 109.724 25.7067 109.724 24.064C109.724 22.4213 110.087 20.9813 110.812 19.744C111.538 18.4853 112.508 17.504 113.724 16.8C114.962 16.096 116.348 15.744 117.884 15.744C119.399 15.744 120.764 16.096 121.98 16.8C123.218 17.504 124.188 18.4853 124.892 19.744C125.618 20.9813 125.98 22.4213 125.98 24.064C125.98 25.7067 125.618 27.1573 124.892 28.416C124.188 29.6533 123.218 30.624 121.98 31.328C120.743 32.032 119.367 32.384 117.852 32.384ZM117.852 28.832C118.919 28.832 119.847 28.4373 120.636 27.648C121.426 26.8373 121.82 25.6427 121.82 24.064C121.82 22.4853 121.426 21.3013 120.636 20.512C119.847 19.7013 118.93 19.296 117.884 19.296C116.796 19.296 115.858 19.7013 115.068 20.512C114.3 21.3013 113.916 22.4853 113.916 24.064C113.916 25.6427 114.3 26.8373 115.068 27.648C115.858 28.4373 116.786 28.832 117.852 28.832ZM129.643 32V8.96H133.739V32H129.643ZM140.132 13.664C139.385 13.664 138.766 13.44 138.276 12.992C137.806 12.544 137.572 11.9787 137.572 11.296C137.572 10.6133 137.806 10.0587 138.276 9.632C138.766 9.184 139.385 8.96 140.132 8.96C140.878 8.96 141.486 9.184 141.956 9.632C142.446 10.0587 142.692 10.6133 142.692 11.296C142.692 11.9787 142.446 12.544 141.956 12.992C141.486 13.44 140.878 13.664 140.132 13.664ZM138.084 32V16.128H142.18V32H138.084ZM154.071 32.384C152.535 32.384 151.148 32.032 149.911 31.328C148.695 30.624 147.724 29.6533 146.999 28.416C146.295 27.1573 145.943 25.7067 145.943 24.064C145.943 22.4213 146.306 20.9813 147.031 19.744C147.756 18.4853 148.727 17.504 149.943 16.8C151.18 16.096 152.567 15.744 154.103 15.744C155.618 15.744 156.983 16.096 158.199 16.8C159.436 17.504 160.407 18.4853 161.111 19.744C161.836 20.9813 162.199 22.4213 162.199 24.064C162.199 25.7067 161.836 27.1573 161.111 28.416C160.407 29.6533 159.436 30.624 158.199 31.328C156.962 32.032 155.586 32.384 154.071 32.384ZM154.071 28.832C155.138 28.832 156.066 28.4373 156.855 27.648C157.644 26.8373 158.039 25.6427 158.039 24.064C158.039 22.4853 157.644 21.3013 156.855 20.512C156.066 19.7013 155.148 19.296 154.103 19.296C153.015 19.296 152.076 19.7013 151.287 20.512C150.519 21.3013 150.135 22.4853 150.135 24.064C150.135 25.6427 150.519 26.8373 151.287 27.648C152.076 28.4373 153.004 28.832 154.071 28.832Z" fill="#0046DC"/>
<path d="M26.5392 9C28.9843 9 31.1222 10.6483 31.744 13.0131L35.7871 28.3877C36.4002 30.7192 34.6416 33 32.2309 33V33C30.4946 33 28.9949 31.7854 28.6341 30.087L26.0083 17.7261C25.9957 17.6671 25.9437 17.625 25.8835 17.625V17.625C25.8239 17.625 25.7723 17.6662 25.7591 17.7242L23.1215 29.3015C22.6286 31.4651 20.7046 33 18.4856 33V33C16.2798 33 14.3636 31.4829 13.8576 29.3359L11.1469 17.8328C11.1333 17.7751 11.0818 17.7344 11.0225 17.7344V17.7344C10.962 17.7344 10.9097 17.7769 10.8974 17.8362L8.35434 30.0771C8.00066 31.7796 6.50063 33 4.76185 33V33C2.35539 33 0.600431 30.7224 1.21388 28.3955L5.27164 13.0035C5.89365 10.6441 8.02734 9 10.4674 9V9C12.894 9 15.0195 10.6265 15.6538 12.9688L18.3308 22.8549C18.3515 22.9313 18.4208 22.9844 18.5 22.9844V22.9844C18.5791 22.9844 18.6485 22.9313 18.6692 22.8549L21.3445 12.9751C21.9798 10.6291 24.1087 9 26.5392 9V9Z" fill="#0046DC"/>
</svg>
